<?xml version="1.0" encoding="UTF-8"?><!DOCTYPE svg PUBLIC "-//W3C//DTD SVG 1.1//EN" "http://www.w3.org/Graphics/SVG/1.1/DTD/svg11.dtd"><svg xmlns="http://www.w3.org/2000/svg" xmlns:xlink="http://www.w3.org/1999/xlink" xml:space="preserve" width="43.3492mm" height="43.3492mm" version="1.1" viewBox="0 0 4335 4335" shape-rendering="geometricPrecision" text-rendering="geometricPrecision" image-rendering="optimizeQuality" fill-rule="evenodd" clip-rule="evenodd"><defs><style type="text/css"><![CDATA[
    .fil3 {fill:#2B2A29}
    .fil0 {fill:#898989}
    .fil4 {fill:url(#id0)}
    .fil5 {fill:url(#id1)}
    .fil1 {fill:url(#id2)}
    .fil2 {fill:url(#id3)}
   ]]></style><linearGradient id="id0" gradientUnits="userSpaceOnUse" x1="2284.87" y1="1794.93" x2="2284.87" y2="2617.73"><stop offset="0" stop-color="#00A0E3"/><stop offset="1" stop-color="#1F6AA3"/></linearGradient><linearGradient id="id1" gradientUnits="userSpaceOnUse" x1="1092.92" y1="1802.4" x2="1092.92" y2="2226.6"><stop offset="0" stop-color="#F08627"/><stop offset="1" stop-color="#EF7F1A"/></linearGradient><linearGradient id="id2" gradientUnits="userSpaceOnUse" x1="2167.46" y1="3573.9" x2="2167.46" y2="845.69"><stop offset="0" stop-color="#D9DADA"/><stop offset="1" stop-color="#B2B3B3"/></linearGradient><linearGradient id="id3" gradientUnits="userSpaceOnUse" x1="1115.54" y1="773.65" x2="1649.92" y2="3645.95"><stop offset="0" stop-color="#EBECEC"/><stop offset="1" stop-color="#C5C6C6"/></linearGradient></defs><g id="Layer_x0020_1"><rect class="fil0" x="34" y="868" width="4267" height="2728" rx="262" ry="262" fill="#898989"/><rect class="fil1" x="34" y="846" width="4267" height="2728" rx="262" ry="262" fill="url(#id2)"/><path class="fil2" d="M296 3574h1369L2732 846H297c-144 0-262 118-262 262v2204c0 144 118 262 262 262z" fill="url(#id3)"/><g id="_454772168"><path class="fil3" d="M1361 2235c-10-14-19-37-26-52-26-53-93-136-135-171-36-30-90-73-133-92 1 12 7 28 11 41l178 642h229l255-590c11-27 78-175 83-198h-229l-204 524c-3 5-2 4-5 7-1-13-20-105-24-112zm1811-198c0 21 22 116 29 144 11 45 21 95 31 142h-173l113-286zm-439 571c251 0 207 18 237-57 8-21 16-45 25-64h274c2 20 9 42 13 63 6 27 7 57 23 57 215 0 193 13 182-41-4-19-6-30-11-50-8-34-15-66-22-99l-88-402c-14-67-29-134-45-201-56 0-202-12-242 19-40 30-71 124-92 170-18 41-36 80-54 123-17 42-34 79-53 120-42 90-109 259-149 338-5 11-15 23 3 23zm-519-555v24c0 90 104 166 172 194 17 7 34 15 52 25 187 100-8 213-231 123-12-5-39-18-53-20-2 25-10 58-14 86l-14 87c0 21 173 44 213 44 116 0 202-7 293-69 120-82 174-270-14-383-68-41-179-71-179-131 0-81 197-79 302-24 3-33 28-137 28-173-60-29-146-32-217-32-153 0-338 92-338 249zm-439 551h217l117-688c3-17 5-32 8-48 3-18 8-33 8-52h-217c0 27-103 612-116 689l-17 100z" fill="#2B2A29"/><path class="fil3" d="M1067 1921c43 19 97 62 133 92 42 35 109 118 135 171 8 15 16 38 26 52 0-24-51-250-59-292-26-132-34-128-222-128H843v13c1 10 8 8 48 19 46 13 143 50 177 73z" fill="#2B2A29"/></g><path class="fil4" d="M1352 2227c-10-14-19-37-26-52-26-53-93-136-135-171-36-30-90-73-133-92 1 12 7 28 11 41l178 642h229l255-590c11-27 78-175 83-198h-229l-204 524c-3 5-2 4-5 7-1-13-20-105-24-112zm1811-198c0 21 22 116 29 144 11 45 21 95 31 142h-173l113-286zm-439 571c251 0 207 18 237-57 8-21 16-45 25-64h274c2 20 9 42 13 63 6 27 7 57 23 57 215 0 193 13 182-41-4-19-6-30-11-50-8-34-15-66-22-99l-88-402c-14-67-29-134-45-201-56 0-202-12-242 19-40 30-71 124-92 170-18 41-36 80-54 123-17 42-34 79-53 120-42 90-109 259-149 338-5 11-15 23 3 23zm-519-555v24c0 90 104 166 172 194 17 7 34 15 52 25 187 100-8 213-231 123-12-5-39-18-53-20-2 25-10 58-14 86l-14 87c0 21 173 44 213 44 116 0 202-7 293-69 120-82 174-270-14-383-68-41-179-71-179-131 0-81 197-79 302-24 3-33 28-137 28-173-60-29-146-32-217-32-153 0-338 92-338 249zm-439 551h217l117-688c3-17 5-32 8-48 3-18 8-33 8-52h-217c0 27-103 612-116 689l-17 100z" fill="url(#id0)"/><path class="fil5" d="M1059 1913c43 19 97 62 133 92 42 35 109 118 135 171 8 15 16 38 26 52 0-24-51-250-59-292-26-132-34-128-222-128H835v13c1 10 8 8 48 19 46 13 143 50 177 73z" fill="url(#id1)"/></g><metadata><rdf:RDF xmlns:rdf="http://www.w3.org/1999/02/22-rdf-syntax-ns#" xmlns:rdfs="http://www.w3.org/2000/01/rdf-schema#" xmlns:dc="http://purl.org/dc/elements/1.1/"><rdf:Description about="https://iconscout.com/legal#licenses" dc:title="visa,credit,card" dc:description="visa,credit,card" dc:publisher="Iconscout" dc:date="2018-05-15" dc:format="image/svg+xml" dc:language="en"><dc:creator><rdf:Bag><rdf:li>Egor Polyakov</rdf:li></rdf:Bag></dc:creator></rdf:Description></rdf:RDF></metadata></svg>